<svg width="148" height="138" viewBox="0 0 148 138" fill="none" xmlns="http://www.w3.org/2000/svg">
<g clip-path="url(#clip0_21_317)">
<path d="M75.7955 0.301003L70.9798 1.59121L11.6499 17.4868L6.83425 18.777C4.49678 19.4062 2.49498 20.973 1.26803 23.1336C0.041074 25.2942 -0.310839 27.8723 0.289496 30.3022L21.1713 114.429C21.7768 116.858 23.2849 118.937 25.3646 120.212C27.4443 121.487 29.9257 121.852 32.2645 121.229L32.277 121.225L101.213 102.756L101.226 102.753C103.563 102.124 105.565 100.557 106.792 98.3962C108.019 96.2355 108.371 93.6575 107.771 91.2276L86.8887 7.10058C86.2831 4.67211 84.7751 2.59238 82.6954 1.31765C80.6157 0.0429229 78.1343 -0.322698 75.7955 0.301003Z" fill="#F2F2F2"/>
<path d="M76.4504 2.93847L70.7466 4.46663L13.1928 19.8864L7.4891 21.4145C5.82454 21.8625 4.399 22.9783 3.52525 24.5169C2.6515 26.0556 2.40089 27.8915 2.82841 29.6218L23.7102 113.749C24.1414 115.478 25.2154 116.959 26.6963 117.867C28.1773 118.775 29.9444 119.035 31.61 118.591L31.6224 118.588L100.559 100.118L100.571 100.115C102.236 99.6669 103.661 98.5511 104.535 97.0125C105.409 95.4739 105.659 93.638 105.232 91.9076L84.3501 7.78061C83.9188 6.05126 82.8449 4.57024 81.364 3.66248C79.883 2.75471 78.1159 2.49434 76.4504 2.93847Z" fill="white"/>
<path d="M72.1436 30.181L37.2704 39.5242C36.8809 39.6286 36.4674 39.5679 36.121 39.3556C35.7745 39.1432 35.5235 38.7966 35.4231 38.3919C35.3226 37.9872 35.381 37.5577 35.5854 37.1978C35.7898 36.8379 36.1234 36.577 36.5129 36.4727L71.3861 27.1295C71.7755 27.0255 72.1887 27.0865 72.5348 27.2988C72.881 27.5112 73.1318 27.8577 73.2322 28.2621C73.3326 28.6666 73.2743 29.0958 73.0702 29.4557C72.8661 29.8155 72.5328 30.0764 72.1436 30.181Z" fill="#F2F2F2"/>
<path d="M79.4797 33.7075L38.5485 44.6737C38.159 44.7781 37.7455 44.7174 37.3991 44.505C37.0526 44.2927 36.8016 43.9461 36.7011 43.5414C36.6007 43.1367 36.6591 42.7072 36.8635 42.3473C37.0679 41.9873 37.4015 41.7265 37.791 41.6222L78.7222 30.6559C79.1117 30.5516 79.5252 30.6122 79.8716 30.8246C80.2181 31.0369 80.4691 31.3836 80.5696 31.7882C80.67 32.1929 80.6116 32.6224 80.4072 32.9823C80.2028 33.3423 79.8692 33.6031 79.4797 33.7075Z" fill="#F2F2F2"/>
<path d="M77.8716 53.2584L42.9984 62.6016C42.8055 62.6532 42.6048 62.6649 42.4076 62.636C42.2104 62.6071 42.0206 62.5381 41.849 62.4329C41.6775 62.3278 41.5276 62.1885 41.4078 62.0232C41.288 61.8579 41.2008 61.6696 41.1511 61.4693C41.1013 61.2689 41.0901 61.0603 41.1179 60.8554C41.1458 60.6505 41.2122 60.4534 41.3134 60.2751C41.4146 60.0969 41.5486 59.9412 41.7078 59.8167C41.8669 59.6923 42.0481 59.6017 42.241 59.55L77.1142 50.2068C77.307 50.1552 77.5078 50.1435 77.705 50.1724C77.9022 50.2013 78.092 50.2703 78.2636 50.3755C78.4351 50.4806 78.585 50.6199 78.7048 50.7852C78.8245 50.9505 78.9118 51.1388 78.9615 51.3391C79.0112 51.5395 79.0225 51.7481 78.9946 51.953C78.9668 52.1579 78.9004 52.355 78.7992 52.5333C78.698 52.7115 78.5639 52.8672 78.4048 52.9917C78.2457 53.1161 78.0645 53.2067 77.8716 53.2584Z" fill="#F2F2F2"/>
<path d="M85.2079 56.7848L44.2767 67.7511C44.0839 67.8027 43.8831 67.8144 43.6859 67.7855C43.4887 67.7566 43.2989 67.6876 43.1273 67.5824C42.9558 67.4773 42.8059 67.338 42.6861 67.1727C42.5664 67.0074 42.4791 66.8191 42.4294 66.6188C42.3797 66.4184 42.3684 66.2098 42.3963 66.0049C42.4241 65.8 42.4905 65.6029 42.5917 65.4246C42.6929 65.2464 42.8269 65.0907 42.9861 64.9662C43.1452 64.8418 43.3264 64.7512 43.5193 64.6995L84.4505 53.7333C84.84 53.6289 85.2534 53.6896 85.5999 53.9019C85.9463 54.1143 86.1974 54.4609 86.2978 54.8656C86.3983 55.2702 86.3399 55.6998 86.1355 56.0597C85.9311 56.4196 85.5974 56.6805 85.2079 56.7848Z" fill="#F2F2F2"/>
<path d="M83.5999 76.3358L48.7266 85.679C48.3372 85.783 47.924 85.7221 47.5778 85.5097C47.2316 85.2974 46.9807 84.9509 46.8803 84.5464C46.7799 84.1419 46.8382 83.7125 47.0424 83.3527C47.2466 82.9929 47.5799 82.732 47.9692 82.6274L82.8424 73.2842C83.2319 73.1799 83.6454 73.2405 83.9918 73.4529C84.3382 73.6652 84.5893 74.0118 84.6897 74.4165C84.7902 74.8212 84.7318 75.2507 84.5274 75.6106C84.323 75.9706 83.9894 76.2314 83.5999 76.3358Z" fill="#F2F2F2"/>
<path d="M90.9361 79.8622L50.0048 90.8284C49.8119 90.8803 49.611 90.8922 49.4137 90.8634C49.2163 90.8346 49.0264 90.7656 48.8547 90.6605C48.683 90.5554 48.533 90.4161 48.4131 90.2507C48.2933 90.0853 48.206 89.897 48.1562 89.6965C48.1064 89.496 48.0952 89.2873 48.1231 89.0823C48.151 88.8773 48.2176 88.68 48.3189 88.5017C48.4202 88.3235 48.5544 88.1677 48.7137 88.0433C48.873 87.9189 49.0544 87.8284 49.2474 87.7769L90.1786 76.8106C90.5681 76.7063 90.9816 76.767 91.328 76.9793C91.6744 77.1917 91.9255 77.5383 92.0259 77.9429C92.1264 78.3476 92.068 78.7771 91.8636 79.1371C91.6592 79.497 91.3256 79.7578 90.9361 79.8622Z" fill="#F2F2F2"/>
<path d="M31.3168 49.1043L18.9755 52.4108C18.7887 52.4606 18.5906 52.4314 18.4245 52.3296C18.2585 52.2278 18.138 52.0617 18.0897 51.8678L15.2568 40.4547C15.2088 40.2607 15.2369 40.0548 15.3349 39.8823C15.4329 39.7098 15.5927 39.5847 15.7793 39.5344L28.1206 36.2279C28.3074 36.1781 28.5055 36.2073 28.6716 36.3091C28.8377 36.4109 28.9581 36.577 29.0064 36.7709L31.8394 48.184C31.8873 48.378 31.8592 48.5839 31.7613 48.7564C31.6633 48.929 31.5034 49.0541 31.3168 49.1043Z" fill="#E6E6E6"/>
<path d="M37.0451 72.1817L24.7038 75.4881C24.517 75.5379 24.3189 75.5087 24.1528 75.407C23.9867 75.3052 23.8663 75.1391 23.818 74.9452L20.985 63.5321C20.9371 63.338 20.9652 63.1322 21.0632 62.9596C21.1611 62.7871 21.321 62.662 21.5076 62.6118L33.8489 59.3053C34.0357 59.2555 34.2338 59.2847 34.3999 59.3865C34.5659 59.4883 34.6864 59.6543 34.7347 59.8483L37.5676 71.2614C37.6156 71.4554 37.5875 71.6613 37.4895 71.8338C37.3915 72.0063 37.2317 72.1314 37.0451 72.1817Z" fill="#E6E6E6"/>
<path d="M42.7733 95.259L30.432 98.5655C30.2453 98.6153 30.0471 98.5861 29.8811 98.4843C29.715 98.3825 29.5946 98.2165 29.5462 98.0226L26.7133 86.6094C26.6654 86.4154 26.6935 86.2095 26.7914 86.037C26.8894 85.8645 27.0492 85.7394 27.2359 85.6891L39.5772 82.3827C39.764 82.3329 39.9621 82.3621 40.1282 82.4638C40.2942 82.5656 40.4146 82.7317 40.463 82.9256L43.2959 94.3387C43.3439 94.5328 43.3158 94.7386 43.2178 94.9112C43.1198 95.0837 42.96 95.2088 42.7733 95.259Z" fill="#E6E6E6"/>
<path d="M123.893 21.626H52.6752C50.2605 21.6288 47.9456 22.6266 46.2382 24.4005C44.5307 26.1744 43.5703 28.5795 43.5676 31.0881V117.967C43.5703 120.476 44.5307 122.881 46.2382 124.655C47.9456 126.429 50.2605 127.427 52.6752 127.43H123.893C126.307 127.427 128.622 126.429 130.33 124.655C132.037 122.881 132.997 120.476 133 117.967V31.0881C132.997 28.5795 132.037 26.1744 130.33 24.4005C128.622 22.6266 126.307 21.6288 123.893 21.626Z" fill="#E6E6E6"/>
<path d="M123.893 24.3499H52.6752C50.9556 24.3519 49.3071 25.0625 48.0912 26.3257C46.8753 27.5889 46.1914 29.3016 46.1895 31.0881V117.967C46.1914 119.754 46.8753 121.467 48.0912 122.73C49.3071 123.993 50.9556 124.704 52.6752 124.706H123.893C125.612 124.704 127.261 123.993 128.476 122.73C129.692 121.467 130.376 119.754 130.378 117.967V31.0881C130.376 29.3017 129.692 27.589 128.476 26.3257C127.261 25.0625 125.612 24.352 123.893 24.3499Z" fill="white"/>
<path d="M131.374 138C140.556 138 148 130.267 148 120.727C148 111.188 140.556 103.455 131.374 103.455C122.193 103.455 114.749 111.188 114.749 120.727C114.749 130.267 122.193 138 131.374 138Z" fill="#F50057"/>
<path d="M139.326 118.474H133.543V112.466C133.543 111.869 133.315 111.296 132.908 110.873C132.501 110.451 131.95 110.214 131.374 110.214C130.799 110.214 130.248 110.451 129.841 110.873C129.434 111.296 129.206 111.869 129.206 112.466V118.474H123.423C122.848 118.474 122.296 118.712 121.89 119.134C121.483 119.557 121.255 120.13 121.255 120.727C121.255 121.325 121.483 121.898 121.89 122.32C122.296 122.743 122.848 122.98 123.423 122.98H129.206V128.988C129.206 129.586 129.434 130.159 129.841 130.581C130.248 131.004 130.799 131.241 131.374 131.241C131.95 131.241 132.501 131.004 132.908 130.581C133.315 130.159 133.543 129.586 133.543 128.988V122.98H139.326C139.901 122.98 140.453 122.743 140.859 122.32C141.266 121.898 141.494 121.325 141.494 120.727C141.494 120.13 141.266 119.557 140.859 119.134C140.453 118.712 139.901 118.474 139.326 118.474Z" fill="white"/>
<path d="M113.174 72.0899H77.1602C76.9609 72.0901 76.7635 72.0495 76.5793 71.9705C76.3951 71.8914 76.2277 71.7753 76.0867 71.629C75.9457 71.4827 75.8338 71.3089 75.7575 71.1176C75.6811 70.9263 75.6418 70.7213 75.6418 70.5142C75.6418 70.3071 75.6811 70.1021 75.7575 69.9108C75.8338 69.7195 75.9457 69.5457 76.0867 69.3994C76.2277 69.2531 76.3951 69.137 76.5793 69.0579C76.7635 68.9789 76.9609 68.9383 77.1602 68.9385H113.174C113.576 68.939 113.962 69.1052 114.246 69.4006C114.53 69.6961 114.689 70.0966 114.689 70.5142C114.689 70.9318 114.53 71.3323 114.246 71.6278C113.962 71.9232 113.576 72.0894 113.174 72.0899Z" fill="#E6E6E6"/>
<path d="M119.431 77.4079H77.1602C76.9609 77.4081 76.7635 77.3675 76.5793 77.2884C76.3951 77.2093 76.2277 77.0933 76.0867 76.947C75.9457 76.8006 75.8338 76.6268 75.7575 76.4356C75.6811 76.2443 75.6418 76.0392 75.6418 75.8322C75.6418 75.6251 75.6811 75.42 75.7575 75.2288C75.8338 75.0375 75.9457 74.8637 76.0867 74.7174C76.2277 74.571 76.3951 74.455 76.5793 74.3759C76.7635 74.2968 76.9609 74.2562 77.1602 74.2565H119.431C119.833 74.2565 120.219 74.4225 120.503 74.718C120.787 75.0135 120.947 75.4143 120.947 75.8322C120.947 76.2501 120.787 76.6508 120.503 76.9463C120.219 77.2418 119.833 77.4079 119.431 77.4079Z" fill="#E6E6E6"/>
<path d="M113.174 95.9223H77.1602C76.9609 95.9225 76.7635 95.8819 76.5793 95.8028C76.3951 95.7237 76.2277 95.6077 76.0867 95.4614C75.9457 95.315 75.8338 95.1413 75.7575 94.95C75.6811 94.7587 75.6418 94.5536 75.6418 94.3466C75.6418 94.1395 75.6811 93.9345 75.7575 93.7432C75.8338 93.5519 75.9457 93.3781 76.0867 93.2318C76.2277 93.0854 76.3951 92.9694 76.5793 92.8903C76.7635 92.8112 76.9609 92.7706 77.1602 92.7709H113.174C113.577 92.7709 113.962 92.9369 114.247 93.2324C114.531 93.5279 114.691 93.9287 114.691 94.3466C114.691 94.7645 114.531 95.1653 114.247 95.4608C113.962 95.7563 113.577 95.9223 113.174 95.9223Z" fill="#E6E6E6"/>
<path d="M119.431 101.24H77.1602C76.9609 101.24 76.7635 101.2 76.5793 101.121C76.3951 101.042 76.2277 100.926 76.0867 100.779C75.9457 100.633 75.8338 100.459 75.7575 100.268C75.6811 100.077 75.6418 99.8716 75.6418 99.6645C75.6418 99.4575 75.6811 99.2524 75.7575 99.0611C75.8338 98.8698 75.9457 98.6961 76.0867 98.5497C76.2277 98.4034 76.3951 98.2874 76.5793 98.2083C76.7635 98.1292 76.9609 98.0886 77.1602 98.0888H119.431C119.63 98.0886 119.827 98.1292 120.011 98.2083C120.196 98.2874 120.363 98.4034 120.504 98.5497C120.645 98.6961 120.757 98.8698 120.833 99.0611C120.91 99.2524 120.949 99.4575 120.949 99.6645C120.949 99.8716 120.91 100.077 120.833 100.268C120.757 100.459 120.645 100.633 120.504 100.779C120.363 100.926 120.196 101.042 120.011 101.121C119.827 101.2 119.63 101.24 119.431 101.24Z" fill="#E6E6E6"/>
<path d="M69.0929 79.822H56.3478C56.155 79.8218 55.9702 79.7421 55.8338 79.6005C55.6975 79.4588 55.6208 79.2668 55.6206 79.0664V67.2799C55.6208 67.0796 55.6975 66.8876 55.8338 66.7459C55.9702 66.6043 56.155 66.5246 56.3478 66.5244H69.0929C69.2857 66.5246 69.4706 66.6043 69.6069 66.7459C69.7432 66.8876 69.8199 67.0796 69.8201 67.2799V79.0664C69.8199 79.2668 69.7432 79.4588 69.6069 79.6005C69.4706 79.7421 69.2857 79.8218 69.0929 79.822Z" fill="#E6E6E6"/>
<path d="M69.0929 103.654H56.3478C56.155 103.654 55.9702 103.574 55.8338 103.433C55.6975 103.291 55.6208 103.099 55.6206 102.899V91.1123C55.6208 90.912 55.6975 90.7199 55.8338 90.5783C55.9702 90.4366 56.155 90.357 56.3478 90.3568H69.0929C69.2857 90.357 69.4706 90.4366 69.6069 90.5783C69.7432 90.7199 69.8199 90.912 69.8201 91.1123V102.899C69.8199 103.099 69.7432 103.291 69.6069 103.433C69.4706 103.574 69.2857 103.654 69.0929 103.654Z" fill="#E6E6E6"/>
<path d="M113.214 45.5598H86.6626C86.2604 45.5598 85.8746 45.3938 85.5902 45.0983C85.3058 44.8028 85.146 44.402 85.146 43.9841C85.146 43.5662 85.3058 43.1654 85.5902 42.8699C85.8746 42.5744 86.2604 42.4084 86.6626 42.4084H113.214C113.617 42.4084 114.002 42.5744 114.287 42.8699C114.571 43.1654 114.731 43.5662 114.731 43.9841C114.731 44.402 114.571 44.8028 114.287 45.0983C114.002 45.3938 113.617 45.5598 113.214 45.5598Z" fill="#CCCCCC"/>
<path d="M119.471 50.8777H86.6626C86.4635 50.8777 86.2663 50.837 86.0823 50.7578C85.8982 50.6786 85.731 50.5626 85.5902 50.4162C85.4494 50.2699 85.3377 50.0962 85.2614 49.905C85.1852 49.7139 85.146 49.509 85.146 49.3021C85.146 49.0951 85.1852 48.8902 85.2614 48.6991C85.3377 48.5079 85.4494 48.3342 85.5902 48.1879C85.731 48.0416 85.8982 47.9255 86.0823 47.8463C86.2663 47.7671 86.4635 47.7264 86.6626 47.7264H119.471C119.873 47.7264 120.259 47.8924 120.543 48.1879C120.827 48.4834 120.987 48.8842 120.987 49.3021C120.987 49.72 120.827 50.1207 120.543 50.4162C120.259 50.7117 119.873 50.8777 119.471 50.8777Z" fill="#CCCCCC"/>
<path d="M80.7862 57.3225H56.3078C56.115 57.3222 55.9301 57.2426 55.7938 57.1009C55.6575 56.9593 55.5808 56.7672 55.5806 56.5669V36.7192C55.5808 36.5189 55.6575 36.3268 55.7938 36.1852C55.9301 36.0435 56.115 35.9639 56.3078 35.9637H80.7862C80.979 35.9639 81.1639 36.0435 81.3002 36.1852C81.4365 36.3268 81.5132 36.5189 81.5134 36.7192V56.5669C81.5132 56.7672 81.4365 56.9593 81.3002 57.1009C81.1639 57.2426 80.979 57.3222 80.7862 57.3225Z" fill="#F50057"/>
</g>
<defs>
<clipPath id="clip0_21_317">
<rect width="148" height="138" fill="white"/>
</clipPath>
</defs>
</svg>
