<svg width="502" height="340" viewBox="0 0 502 340" fill="none" xmlns="http://www.w3.org/2000/svg">
<g clip-path="url(#clip0_21_223)">
<path d="M172.914 318.277L157.545 327.762L172.697 323.875C172.58 325.205 172.421 326.511 172.209 327.79C172.151 328.145 172.087 328.494 172.018 328.843C171.5 331.779 170.562 334.613 169.236 337.246C168.981 337.73 168.727 338.203 168.462 338.66C168.208 339.121 167.943 339.566 167.673 340H126.935C126.596 339.566 126.272 339.116 125.976 338.66C123.071 334.314 121.894 328.928 122.701 323.667C122.849 322.597 123.061 321.538 123.336 320.496C123.603 319.432 123.927 318.385 124.306 317.359C124.968 315.548 125.749 313.788 126.643 312.093C128.509 308.523 131.418 305.301 134.847 302.44C136.507 301.063 138.237 299.785 140.03 298.61C140.369 298.379 140.714 298.154 141.064 297.934C141.599 297.596 142.134 297.264 142.675 296.943C143.75 296.29 144.837 295.67 145.923 295.085C146.209 294.927 146.49 294.775 146.771 294.628C149.129 293.378 151.477 292.257 153.713 291.272C153.994 291.148 154.281 291.024 154.561 290.906C159.01 288.971 163.562 287.315 168.192 285.944C168.192 285.944 168.208 285.989 168.234 286.085C168.303 286.344 168.478 286.969 168.716 287.892C169.379 290.455 170.545 295.344 171.483 301.246C171.536 301.567 171.584 301.894 171.637 302.22C172.42 307.212 172.854 312.259 172.935 317.32C172.94 317.635 172.94 317.945 172.94 318.26L172.914 318.277Z" fill="#F2F2F2"/>
<path d="M169.315 285.369C169.31 285.386 169.257 285.662 169.135 286.169C169.034 286.591 168.897 287.172 168.716 287.892C168.096 290.41 166.994 294.628 165.425 299.708C165.335 300.001 165.24 300.305 165.145 300.61C164.053 304.085 162.754 307.926 161.255 311.874C160.878 312.865 160.502 313.839 160.115 314.791C159.999 315.09 159.882 315.382 159.76 315.67C158.117 319.713 156.427 323.414 154.689 326.77L154.249 327.61C152.228 331.504 149.889 335.201 147.259 338.66C146.904 339.121 146.543 339.566 146.178 340H144.948C145.319 339.566 145.69 339.116 146.05 338.66C148.832 335.082 151.293 331.235 153.401 327.17C153.549 326.894 153.698 326.618 153.841 326.337C155.711 322.727 157.413 318.953 158.933 315.213C159.055 314.926 159.172 314.633 159.288 314.335C161.276 309.39 162.945 304.529 164.291 300.249C164.387 299.945 164.482 299.641 164.572 299.342C166.533 293.023 167.763 288.067 168.234 286.085C168.298 285.792 168.351 285.561 168.388 285.403C168.425 285.257 168.441 285.172 168.446 285.155L168.876 285.262H168.881L169.315 285.369Z" fill="white"/>
<path d="M172.294 301.319C172.023 301.302 171.753 301.274 171.483 301.246C169.409 301.017 167.373 300.5 165.425 299.708C165.145 299.59 164.858 299.472 164.572 299.342C163.797 298.988 163.04 298.592 162.304 298.154C159.259 296.363 156.617 293.89 154.561 290.906C154.492 290.81 154.424 290.708 154.36 290.613C154.084 290.737 153.804 290.861 153.517 290.984C153.581 291.08 153.645 291.176 153.713 291.272C155.858 294.456 158.645 297.092 161.869 298.988C162.655 299.453 163.464 299.874 164.291 300.249C164.572 300.373 164.858 300.497 165.145 300.61C167.231 301.454 169.414 301.996 171.637 302.22C171.902 302.249 172.172 302.271 172.437 302.288C172.389 301.956 172.341 301.635 172.294 301.319Z" fill="white"/>
<path d="M172.935 317.32C168.524 317.748 164.088 316.873 160.115 314.791C159.835 314.65 159.559 314.498 159.289 314.335C159.203 314.294 159.12 314.246 159.04 314.194C155.676 312.207 152.808 309.395 150.674 305.992C148.54 302.588 147.202 298.692 146.771 294.628C146.761 294.533 146.75 294.431 146.739 294.336C146.453 294.493 146.167 294.645 145.886 294.803C145.897 294.899 145.907 294.989 145.923 295.085C146.413 299.234 147.816 303.203 150.02 306.668C152.223 310.133 155.165 312.997 158.605 315.028C158.711 315.09 158.822 315.157 158.934 315.213C159.209 315.371 159.485 315.523 159.76 315.67C163.839 317.796 168.388 318.698 172.914 318.277C173.152 318.255 173.391 318.227 173.629 318.198C173.629 317.877 173.635 317.562 173.635 317.241C173.401 317.269 173.168 317.297 172.935 317.32Z" fill="white"/>
<path d="M172.209 327.79C167.438 329.454 162.297 329.495 157.503 327.908C156.543 327.593 155.603 327.213 154.689 326.77C154.402 326.635 154.121 326.489 153.841 326.337C153.539 326.179 153.242 326.01 152.95 325.841C148.987 323.496 145.723 320.014 143.531 315.793C141.339 311.572 140.308 306.781 140.555 301.967C140.62 300.61 140.79 299.261 141.064 297.934C141.079 297.844 141.095 297.754 141.117 297.664C140.767 297.895 140.417 298.126 140.072 298.362C140.057 298.447 140.041 298.526 140.03 298.61C139.719 300.429 139.59 302.277 139.643 304.124C139.76 308.746 141.009 313.256 143.265 317.209C145.521 321.162 148.708 324.423 152.511 326.669C152.807 326.844 153.104 327.013 153.401 327.17C153.682 327.322 153.968 327.469 154.249 327.61C159.829 330.325 166.153 330.764 172.018 328.843C172.214 328.787 172.41 328.719 172.606 328.652C172.686 328.291 172.755 327.931 172.818 327.57C172.617 327.649 172.416 327.722 172.209 327.79Z" fill="white"/>
<path d="M135.801 138.841H106.124V170.38H135.801V138.841Z" fill="#9E616A"/>
<path d="M87.6153 327.341L93.4628 327.341L96.244 303.373L87.6143 303.373L87.6153 327.341Z" fill="#9E616A"/>
<path d="M103.664 334.345L94.878 327.897V323.69L93.8815 323.752L87.6175 324.151L85.6354 324.275L84.5066 338.66L84.4696 339.138H88.6192L88.7038 338.66L89.3611 334.976L91.041 338.66L91.2584 339.138H102.26C102.915 339.137 103.543 338.86 104.007 338.368C104.471 337.877 104.732 337.21 104.735 336.514C104.735 336.087 104.638 335.667 104.452 335.289C104.265 334.911 103.995 334.588 103.664 334.345Z" fill="#2F2E41"/>
<path d="M121.812 323.396L127.431 325.113L136.339 302.896L128.045 300.361L121.812 323.396Z" fill="#9E616A"/>
<path d="M135.414 334.847L128.647 326.066L129.744 322.023L128.769 321.792L123.336 320.496L122.642 320.333L120.708 319.871L115.721 333.81L119.706 335.033L121.503 331.248L122.24 335.804L124.751 336.57L131.583 338.66L132.817 339.037C133.324 339.193 133.865 339.173 134.36 338.979C134.855 338.785 135.279 338.428 135.569 337.959C135.86 337.491 136.001 336.936 135.973 336.376C135.945 335.816 135.749 335.28 135.414 334.847V334.847Z" fill="#2F2E41"/>
<path d="M500.267 -7.15256e-07H190.529C190.069 0.00149002 189.629 0.196774 189.304 0.54305C188.979 0.889325 188.797 1.35834 188.797 1.8473V12.689C188.796 13.1779 188.979 13.647 189.304 13.9932C189.629 14.3395 190.069 14.5348 190.529 14.5363H500.267C500.727 14.5348 501.168 14.3396 501.493 13.9933C501.818 13.647 502 13.1779 502 12.689V1.8473C502 1.35833 501.818 0.889285 501.493 0.542998C501.168 0.196712 500.727 0.00143953 500.267 -7.15256e-07Z" fill="#E4E4E4"/>
<path d="M198.865 9.3563C200.225 9.3563 201.328 8.18433 201.328 6.73862C201.328 5.29292 200.225 4.12094 198.865 4.12094C197.505 4.12094 196.402 5.29292 196.402 6.73862C196.402 8.18433 197.505 9.3563 198.865 9.3563Z" fill="white"/>
<path d="M208.214 9.3563C209.575 9.3563 210.677 8.18433 210.677 6.73862C210.677 5.29292 209.575 4.12094 208.214 4.12094C206.854 4.12094 205.751 5.29292 205.751 6.73862C205.751 8.18433 206.854 9.3563 208.214 9.3563Z" fill="white"/>
<path d="M217.564 9.3563C218.924 9.3563 220.027 8.18433 220.027 6.73862C220.027 5.29292 218.924 4.12094 217.564 4.12094C216.204 4.12094 215.101 5.29292 215.101 6.73862C215.101 8.18433 216.204 9.3563 217.564 9.3563Z" fill="white"/>
<path d="M491.104 3.24405H480.341C480.129 3.24405 479.926 3.33335 479.777 3.49231C479.627 3.65127 479.543 3.86687 479.543 4.09167C479.543 4.31647 479.627 4.53207 479.777 4.69103C479.926 4.84999 480.129 4.93929 480.341 4.93929H491.104C491.316 4.93929 491.519 4.84999 491.668 4.69103C491.818 4.53207 491.902 4.31647 491.902 4.09167C491.902 3.86687 491.818 3.65127 491.668 3.49231C491.519 3.33335 491.316 3.24405 491.104 3.24405Z" fill="white"/>
<path d="M491.104 6.42051H480.341C480.236 6.42051 480.132 6.44243 480.035 6.48503C479.939 6.52763 479.851 6.59007 479.777 6.66878C479.703 6.74748 479.644 6.84092 479.604 6.94376C479.564 7.0466 479.543 7.15682 479.543 7.26813C479.543 7.37944 479.564 7.48967 479.604 7.59251C479.644 7.69534 479.703 7.78878 479.777 7.86749C479.851 7.9462 479.939 8.00864 480.035 8.05123C480.132 8.09383 480.236 8.11576 480.341 8.11576H491.104C491.209 8.11576 491.313 8.09383 491.409 8.05123C491.506 8.00864 491.594 7.9462 491.668 7.86749C491.742 7.78878 491.801 7.69534 491.841 7.59251C491.881 7.48967 491.902 7.37944 491.902 7.26813C491.902 7.15682 491.881 7.0466 491.841 6.94376C491.801 6.84092 491.742 6.74748 491.668 6.66878C491.594 6.59007 491.506 6.52763 491.409 6.48503C491.313 6.44243 491.209 6.42051 491.104 6.42051Z" fill="white"/>
<path d="M491.104 9.59698H480.341C480.129 9.59698 479.926 9.68628 479.777 9.84524C479.627 10.0042 479.543 10.2198 479.543 10.4446C479.543 10.6694 479.627 10.885 479.777 11.044C479.926 11.2029 480.129 11.2922 480.341 11.2922H491.104C491.316 11.2922 491.519 11.2029 491.668 11.044C491.818 10.885 491.902 10.6694 491.902 10.4446C491.902 10.2198 491.818 10.0042 491.668 9.84524C491.519 9.68628 491.316 9.59698 491.104 9.59698Z" fill="white"/>
<path d="M489.88 45.8954H409.629C409.07 45.8969 408.534 46.1336 408.139 46.5536C407.744 46.9737 407.521 47.5429 407.52 48.137V82.7458C407.521 83.3398 407.744 83.9091 408.139 84.3291C408.534 84.7492 409.07 84.9858 409.629 84.9873H489.88C490.439 84.9868 490.975 84.7504 491.371 84.3302C491.766 83.9099 491.989 83.3401 491.989 82.7458V48.137C491.989 47.5426 491.766 46.9728 491.371 46.5526C490.975 46.1323 490.439 45.896 489.88 45.8954Z" fill="#E4E4E4"/>
<path d="M482.238 96.2063H417.271C416.6 96.2063 415.956 96.4897 415.481 96.994C415.007 97.4983 414.74 98.1824 414.74 98.8956C414.74 99.6089 415.007 100.293 415.481 100.797C415.956 101.302 416.6 101.585 417.271 101.585H482.238C485.534 101.636 485.502 96.1556 482.238 96.2063Z" fill="#E4E4E4"/>
<path d="M482.238 108.535H417.271C416.6 108.535 415.956 108.818 415.481 109.323C415.007 109.827 414.74 110.511 414.74 111.224C414.74 111.937 415.007 112.621 415.481 113.126C415.956 113.63 416.6 113.913 417.271 113.913H482.238C485.534 113.964 485.502 108.484 482.238 108.535Z" fill="#E4E4E4"/>
<path d="M482.238 120.863H417.271C416.6 120.863 415.956 121.147 415.481 121.651C415.007 122.155 414.74 122.839 414.74 123.553C414.74 124.266 415.007 124.95 415.481 125.454C415.956 125.959 416.6 126.242 417.271 126.242H482.238C485.534 126.293 485.502 120.813 482.238 120.863Z" fill="#E4E4E4"/>
<path d="M384.419 45.8954H304.168C303.609 45.8969 303.073 46.1336 302.678 46.5536C302.283 46.9737 302.06 47.5429 302.059 48.137V82.7458C302.06 83.3398 302.283 83.9091 302.678 84.3291C303.073 84.7492 303.609 84.9858 304.168 84.9873H384.419C384.978 84.9868 385.514 84.7504 385.91 84.3302C386.305 83.9099 386.527 83.3401 386.528 82.7458V48.137C386.527 47.5426 386.305 46.9728 385.91 46.5526C385.514 46.1323 384.978 45.896 384.419 45.8954Z" fill="#E4E4E4"/>
<path d="M376.777 96.2063H311.81C311.139 96.2063 310.495 96.4897 310.02 96.994C309.546 97.4983 309.279 98.1824 309.279 98.8956C309.279 99.6089 309.546 100.293 310.02 100.797C310.495 101.302 311.139 101.585 311.81 101.585H376.777C380.073 101.636 380.041 96.1556 376.777 96.2063Z" fill="#E4E4E4"/>
<path d="M376.777 108.535H311.81C311.139 108.535 310.495 108.818 310.02 109.323C309.546 109.827 309.279 110.511 309.279 111.224C309.279 111.937 309.546 112.621 310.02 113.126C310.495 113.63 311.139 113.913 311.81 113.913H376.777C380.073 113.964 380.041 108.484 376.777 108.535Z" fill="#E4E4E4"/>
<path d="M376.777 120.863H311.81C311.139 120.863 310.495 121.147 310.02 121.651C309.546 122.155 309.279 122.839 309.279 123.553C309.279 124.266 309.546 124.95 310.02 125.454C310.495 125.959 311.139 126.242 311.81 126.242H376.777C380.073 126.293 380.041 120.813 376.777 120.863Z" fill="#E4E4E4"/>
<path d="M183.188 111.349C183.086 111.67 183.011 111.999 182.964 112.333L150.105 106.161L121.801 89.9411C120.021 88.9207 117.942 88.6557 115.985 89.1998C114.028 89.7438 112.338 91.0563 111.256 92.8725C110.174 94.6887 109.78 96.8735 110.154 98.9863C110.527 101.099 111.641 102.982 113.271 104.257H113.271C118.55 108.386 124.403 111.616 130.619 113.829L151.139 121.133L187.081 118.685C188.079 118.913 189.118 118.831 190.073 118.447C191.028 118.063 191.858 117.394 192.464 116.52C193.07 115.647 193.425 114.606 193.487 113.522C193.549 112.439 193.315 111.36 192.813 110.415C192.312 109.47 191.564 108.699 190.659 108.195C189.755 107.691 188.733 107.475 187.716 107.574C186.7 107.673 185.731 108.081 184.928 108.751C184.125 109.421 183.521 110.323 183.188 111.349Z" fill="#9E616A"/>
<path d="M264.013 111.458H161.721C161.008 111.459 160.323 111.761 159.819 112.297C159.314 112.833 159.03 113.56 159.029 114.319V158.423C159.03 159.182 159.314 159.909 159.819 160.445C160.323 160.982 161.008 161.283 161.721 161.284H264.013C264.726 161.282 265.409 160.98 265.913 160.444C266.416 159.907 266.699 159.181 266.7 158.423V114.319C266.699 113.561 266.416 112.835 265.913 112.299C265.409 111.762 264.726 111.46 264.013 111.458Z" fill="#536DFE"/>
<path d="M254.272 175.584H171.462C170.606 175.584 169.785 175.946 169.18 176.589C168.574 177.232 168.234 178.104 168.234 179.014C168.234 179.924 168.574 180.796 169.18 181.439C169.785 182.083 170.606 182.444 171.462 182.444H254.272C258.475 182.506 258.433 175.522 254.272 175.584Z" fill="#536DFE"/>
<path d="M254.272 191.298H171.462C170.606 191.298 169.785 191.659 169.18 192.302C168.574 192.945 168.234 193.818 168.234 194.727C168.234 195.637 168.574 196.51 169.18 197.153C169.785 197.796 170.606 198.157 171.462 198.157H254.272C258.475 198.219 258.433 191.236 254.272 191.298Z" fill="#536DFE"/>
<path d="M254.272 207.017H171.462C171.038 207.017 170.619 207.105 170.228 207.277C169.836 207.45 169.481 207.702 169.181 208.02C168.882 208.339 168.644 208.716 168.482 209.132C168.32 209.548 168.237 209.994 168.237 210.444C168.237 210.894 168.32 211.339 168.482 211.755C168.644 212.171 168.882 212.549 169.181 212.867C169.481 213.185 169.836 213.438 170.228 213.61C170.619 213.782 171.038 213.871 171.462 213.871H254.272C258.475 213.933 258.433 206.955 254.272 207.017Z" fill="#536DFE"/>
<path d="M136.392 74.2849C140.565 66.1711 137.759 55.9978 130.124 51.5624C122.49 47.1269 112.917 50.1089 108.743 58.2228C104.57 66.3367 107.376 76.5099 115.01 80.9453C122.645 85.3808 132.218 82.3988 136.392 74.2849Z" fill="#9E616A"/>
<path d="M125.202 45.9123H115.025C108.353 45.9123 102.944 52.379 102.944 60.356C97.9092 65.7284 99.4201 72.4588 103.415 79.7045C110.624 80.6576 117.675 82.6619 124.37 85.6608L125.32 81.3497L127.193 87.0273C128.86 87.8854 130.512 88.8236 132.15 89.8421C130.238 80.2952 129.451 70.7705 130.764 63.3716H134.211V59.3627L135.381 63.3716H141.63C141.631 61.0788 141.206 58.8085 140.38 56.6902C139.554 54.5719 138.344 52.6472 136.819 51.026C135.293 49.4047 133.482 48.1187 131.489 47.2413C129.496 46.3639 127.359 45.9123 125.202 45.9123Z" fill="#2F2E41"/>
<path d="M124.142 87.5893L105.087 86.7113L104.575 88.7803C100.359 105.802 99.708 123.598 102.668 140.916C103.233 141.482 103.647 142.199 103.865 142.991C104.084 143.784 104.099 144.624 103.91 145.425L103.636 146.585L103.662 146.627C104.56 148.134 104.865 149.956 104.51 151.699L105.463 157.276L136.331 142.783L143.22 117.439L124.142 87.5893Z" fill="#CACACA"/>
<path d="M171.365 141.006C171.151 141.256 170.958 141.526 170.79 141.813L142.965 122.238L123.087 95.3765C121.836 93.6867 120.029 92.5637 118.03 92.234C116.031 91.9042 113.989 92.3924 112.316 93.6C110.642 94.8075 109.462 96.6446 109.013 98.7407C108.563 100.837 108.879 103.036 109.895 104.895C113.189 110.918 117.347 116.358 122.219 121.02L138.301 136.408L172.185 149.382C173.014 150.014 173.998 150.379 175.018 150.431C176.038 150.483 177.05 150.221 177.933 149.676C178.816 149.131 179.532 148.327 179.995 147.359C180.458 146.392 180.648 145.303 180.542 144.224C180.437 143.145 180.04 142.121 179.399 141.276C178.759 140.431 177.903 139.8 176.933 139.46C175.963 139.12 174.922 139.085 173.934 139.359C172.946 139.633 172.054 140.205 171.364 141.006L171.365 141.006Z" fill="#9E616A"/>
<path d="M231.873 84.8549C228.861 84.8549 225.917 83.9057 223.413 82.1274C220.908 80.3491 218.956 77.8215 217.804 74.8643C216.651 71.9071 216.35 68.6531 216.937 65.5137C217.525 62.3744 218.975 59.4907 221.105 57.2273C223.235 54.964 225.948 53.4226 228.902 52.7981C231.856 52.1737 234.918 52.4942 237.701 53.7191C240.483 54.944 242.862 57.0183 244.535 59.6798C246.208 62.3412 247.102 65.4702 247.102 68.671C247.102 72.9633 245.497 77.0797 242.641 80.1148C239.785 83.1498 235.912 84.8549 231.873 84.8549Z" fill="#E4E4E4"/>
<path d="M237.882 67.0747H233.375V62.2853C233.375 61.8619 233.217 61.4559 232.935 61.1565C232.654 60.8571 232.271 60.6889 231.873 60.6889C231.475 60.6889 231.093 60.8571 230.811 61.1565C230.529 61.4559 230.371 61.8619 230.371 62.2853V67.0747H225.864C225.466 67.0755 225.085 67.244 224.804 67.5433C224.523 67.8426 224.365 68.2482 224.365 68.6711C224.365 69.094 224.523 69.4996 224.804 69.7989C225.085 70.0982 225.466 70.2667 225.864 70.2675H230.371V75.0568C230.371 75.4803 230.529 75.8863 230.811 76.1857C231.093 76.4851 231.475 76.6533 231.873 76.6533C232.271 76.6533 232.654 76.4851 232.935 76.1857C233.217 75.8863 233.375 75.4803 233.375 75.0568V70.2675H237.882C238.079 70.2679 238.275 70.2269 238.458 70.1469C238.64 70.0668 238.806 69.9493 238.946 69.801C239.086 69.6527 239.197 69.4766 239.272 69.2827C239.348 69.0888 239.387 68.881 239.387 68.6711C239.387 68.4612 239.348 68.2534 239.272 68.0595C239.197 67.8656 239.086 67.6895 238.946 67.5412C238.806 67.3929 238.64 67.2754 238.458 67.1953C238.275 67.1153 238.079 67.0743 237.882 67.0747Z" fill="white"/>
<path d="M155.934 265.527C156.429 264.14 156.611 262.649 156.467 261.173C156.322 259.698 155.855 258.279 155.101 257.03L141.63 182.771L136.331 154.61H104.534C104.534 154.61 84.6603 177.983 88.8999 207.833L87.7132 249.871C86.5877 252.754 86.3099 255.932 86.9165 258.987L87.3887 261.365L87.2066 261.723C86.339 263.429 85.8729 265.333 85.8481 267.272C85.8233 269.211 86.2406 271.128 87.0643 272.858L85.7202 320.474L95.2594 319.911L109.303 264.435L118.577 214.592L134.211 253.171L134.741 262.182L134.484 270.125L122.287 316.531L132.621 320.755L155.934 265.527Z" fill="#2F2E41"/>
<path d="M233.011 339.33C233.01 339.507 232.944 339.678 232.826 339.803C232.707 339.929 232.547 340 232.38 340H0.630648C0.46339 340 0.30298 339.929 0.184711 339.804C0.0664421 339.678 0 339.508 0 339.33C0 339.152 0.0664421 338.982 0.184711 338.856C0.30298 338.73 0.46339 338.66 0.630648 338.66H232.38C232.463 338.659 232.545 338.676 232.622 338.71C232.698 338.744 232.768 338.793 232.827 338.855C232.885 338.918 232.932 338.992 232.963 339.073C232.995 339.154 233.011 339.242 233.011 339.33Z" fill="#CACACA"/>
</g>
<defs>
<clipPath id="clip0_21_223">
<rect width="502" height="340" fill="white"/>
</clipPath>
</defs>
</svg>
