<svg width="25" height="25" viewBox="0 0 25 25" fill="none" xmlns="http://www.w3.org/2000/svg">
<path d="M22.7042 24.9667L14.2115 16.2C13.5656 16.7778 12.8122 17.2278 11.951 17.55C11.0899 17.8722 10.175 18.0333 9.20625 18.0333C6.88125 18.0333 4.91146 17.2 3.29688 15.5333C1.68229 13.8667 0.875 11.8556 0.875 9.50001C0.875 7.14445 1.68229 5.13334 3.29688 3.46667C4.91146 1.80001 6.87049 0.966675 9.17396 0.966675C11.4559 0.966675 13.3988 1.80001 15.0026 3.46667C16.6064 5.13334 17.4083 7.14445 17.4083 9.50001C17.4083 10.4556 17.2576 11.3778 16.9562 12.2667C16.6549 13.1556 16.2028 13.9889 15.6 14.7667L24.125 23.5L22.7042 24.9667ZM9.17396 16.0333C10.9177 16.0333 12.4031 15.3945 13.6302 14.1167C14.8573 12.8389 15.4708 11.3 15.4708 9.50001C15.4708 7.70001 14.8573 6.16112 13.6302 4.88334C12.4031 3.60556 10.9177 2.96667 9.17396 2.96667C7.40868 2.96667 5.90712 3.60556 4.66927 4.88334C3.43142 6.16112 2.8125 7.70001 2.8125 9.50001C2.8125 11.3 3.43142 12.8389 4.66927 14.1167C5.90712 15.3945 7.40868 16.0333 9.17396 16.0333Z" fill="black"/>
</svg>
